<mxfile host="app.diagrams.net" modified="2024-02-05T14:29:28.343Z" agent="Mozilla/5.0 (Windows NT 10.0; Win64; x64) AppleWebKit/537.36 (KHTML, like Gecko) Chrome/121.0.0.0 Safari/537.36" etag="nPbjt5u9VMkTuKGJg6Q0" version="22.1.18" type="device">
  <diagram name="Page-1" id="e2gzzoqSlu08qJAk0Vd_">
    <mxGraphModel dx="1849" dy="1689" grid="1" gridSize="10" guides="1" tooltips="1" connect="1" arrows="1" fold="1" page="0" pageScale="1" pageWidth="1169" pageHeight="827" math="0" shadow="0">
      <root>
        <mxCell id="0" />
        <mxCell id="1" parent="0" />
        <mxCell id="pfTGVivJUqFewop_5Jl0-1" value="/signup" style="whiteSpace=wrap;html=1;aspect=fixed;fillColor=#dae8fc;strokeColor=#6c8ebf;rounded=0;" vertex="1" parent="1">
          <mxGeometry x="120" y="200" width="80" height="80" as="geometry" />
        </mxCell>
        <mxCell id="pfTGVivJUqFewop_5Jl0-2" value="/forms/:id" style="whiteSpace=wrap;html=1;aspect=fixed;fillColor=#dae8fc;strokeColor=#6c8ebf;rounded=0;" vertex="1" parent="1">
          <mxGeometry x="1160" y="440" width="80" height="80" as="geometry" />
        </mxCell>
        <mxCell id="pfTGVivJUqFewop_5Jl0-3" value="" style="endArrow=classic;html=1;rounded=0;entryX=0.5;entryY=0;entryDx=0;entryDy=0;" edge="1" parent="1" target="pfTGVivJUqFewop_5Jl0-1">
          <mxGeometry width="50" height="50" relative="1" as="geometry">
            <mxPoint x="160" y="120" as="sourcePoint" />
            <mxPoint x="250" y="40" as="targetPoint" />
          </mxGeometry>
        </mxCell>
        <mxCell id="pfTGVivJUqFewop_5Jl0-5" value="Form owner" style="shape=umlActor;verticalLabelPosition=bottom;verticalAlign=top;html=1;outlineConnect=0;rounded=0;" vertex="1" parent="1">
          <mxGeometry x="145" y="30" width="30" height="60" as="geometry" />
        </mxCell>
        <mxCell id="pfTGVivJUqFewop_5Jl0-6" value="" style="endArrow=classic;html=1;rounded=0;entryX=0.5;entryY=0;entryDx=0;entryDy=0;" edge="1" parent="1">
          <mxGeometry width="50" height="50" relative="1" as="geometry">
            <mxPoint x="1199.71" y="360" as="sourcePoint" />
            <mxPoint x="1199.71" y="440" as="targetPoint" />
          </mxGeometry>
        </mxCell>
        <mxCell id="pfTGVivJUqFewop_5Jl0-7" value="Form respondent" style="shape=umlActor;verticalLabelPosition=bottom;verticalAlign=top;html=1;outlineConnect=0;rounded=0;" vertex="1" parent="1">
          <mxGeometry x="1185" y="270" width="30" height="60" as="geometry" />
        </mxCell>
        <mxCell id="pfTGVivJUqFewop_5Jl0-9" value="/dashboard" style="whiteSpace=wrap;html=1;aspect=fixed;fillColor=#dae8fc;strokeColor=#6c8ebf;rounded=0;" vertex="1" parent="1">
          <mxGeometry x="280" y="360" width="80" height="80" as="geometry" />
        </mxCell>
        <mxCell id="pfTGVivJUqFewop_5Jl0-26" value="/login" style="whiteSpace=wrap;html=1;aspect=fixed;fillColor=#dae8fc;strokeColor=#6c8ebf;rounded=0;" vertex="1" parent="1">
          <mxGeometry x="280" y="200" width="80" height="80" as="geometry" />
        </mxCell>
        <mxCell id="pfTGVivJUqFewop_5Jl0-27" value="" style="endArrow=classic;html=1;rounded=0;entryX=0.5;entryY=0;entryDx=0;entryDy=0;" edge="1" parent="1">
          <mxGeometry width="50" height="50" relative="1" as="geometry">
            <mxPoint x="319.71000000000004" y="120" as="sourcePoint" />
            <mxPoint x="319.71000000000004" y="200" as="targetPoint" />
          </mxGeometry>
        </mxCell>
        <mxCell id="pfTGVivJUqFewop_5Jl0-29" value="Form owner" style="shape=umlActor;verticalLabelPosition=bottom;verticalAlign=top;html=1;outlineConnect=0;rounded=0;" vertex="1" parent="1">
          <mxGeometry x="305" y="30" width="30" height="60" as="geometry" />
        </mxCell>
        <mxCell id="pfTGVivJUqFewop_5Jl0-40" value="User DB" style="whiteSpace=wrap;html=1;aspect=fixed;rounded=0;fillColor=#f5f5f5;fontColor=#333333;strokeColor=#666666;" vertex="1" parent="1">
          <mxGeometry x="720" y="200" width="80" height="80" as="geometry" />
        </mxCell>
        <mxCell id="pfTGVivJUqFewop_5Jl0-51" value="" style="endArrow=classic;html=1;rounded=0;exitX=0.75;exitY=1;exitDx=0;exitDy=0;entryX=0.75;entryY=-0.024;entryDx=0;entryDy=0;curved=1;entryPerimeter=0;strokeColor=none;" edge="1" parent="1" source="pfTGVivJUqFewop_5Jl0-26" target="pfTGVivJUqFewop_5Jl0-9">
          <mxGeometry width="50" height="50" relative="1" as="geometry">
            <mxPoint x="100" y="370" as="sourcePoint" />
            <mxPoint x="150" y="320" as="targetPoint" />
            <Array as="points">
              <mxPoint x="270" y="410" />
            </Array>
          </mxGeometry>
        </mxCell>
        <mxCell id="pfTGVivJUqFewop_5Jl0-63" value="User1" style="swimlane;fontStyle=0;childLayout=stackLayout;horizontal=1;startSize=30;horizontalStack=0;resizeParent=1;resizeParentMax=0;resizeLast=0;collapsible=1;marginBottom=0;whiteSpace=wrap;html=1;" vertex="1" parent="1">
          <mxGeometry x="738" y="-178" width="140" height="150" as="geometry" />
        </mxCell>
        <mxCell id="pfTGVivJUqFewop_5Jl0-64" value="id" style="text;strokeColor=none;fillColor=none;align=left;verticalAlign=middle;spacingLeft=4;spacingRight=4;overflow=hidden;points=[[0,0.5],[1,0.5]];portConstraint=eastwest;rotatable=0;whiteSpace=wrap;html=1;" vertex="1" parent="pfTGVivJUqFewop_5Jl0-63">
          <mxGeometry y="30" width="140" height="30" as="geometry" />
        </mxCell>
        <mxCell id="pfTGVivJUqFewop_5Jl0-65" value="email" style="text;strokeColor=none;fillColor=none;align=left;verticalAlign=middle;spacingLeft=4;spacingRight=4;overflow=hidden;points=[[0,0.5],[1,0.5]];portConstraint=eastwest;rotatable=0;whiteSpace=wrap;html=1;" vertex="1" parent="pfTGVivJUqFewop_5Jl0-63">
          <mxGeometry y="60" width="140" height="30" as="geometry" />
        </mxCell>
        <mxCell id="pfTGVivJUqFewop_5Jl0-66" value="password" style="text;strokeColor=none;fillColor=none;align=left;verticalAlign=middle;spacingLeft=4;spacingRight=4;overflow=hidden;points=[[0,0.5],[1,0.5]];portConstraint=eastwest;rotatable=0;whiteSpace=wrap;html=1;" vertex="1" parent="pfTGVivJUqFewop_5Jl0-63">
          <mxGeometry y="90" width="140" height="30" as="geometry" />
        </mxCell>
        <mxCell id="pfTGVivJUqFewop_5Jl0-67" value="organization" style="text;strokeColor=none;fillColor=none;align=left;verticalAlign=middle;spacingLeft=4;spacingRight=4;overflow=hidden;points=[[0,0.5],[1,0.5]];portConstraint=eastwest;rotatable=0;whiteSpace=wrap;html=1;" vertex="1" parent="pfTGVivJUqFewop_5Jl0-63">
          <mxGeometry y="120" width="140" height="30" as="geometry" />
        </mxCell>
        <mxCell id="pfTGVivJUqFewop_5Jl0-68" value="Form1" style="swimlane;fontStyle=0;childLayout=stackLayout;horizontal=1;startSize=30;horizontalStack=0;resizeParent=1;resizeParentMax=0;resizeLast=0;collapsible=1;marginBottom=0;whiteSpace=wrap;html=1;" vertex="1" parent="1">
          <mxGeometry x="938" y="-178" width="140" height="420" as="geometry" />
        </mxCell>
        <mxCell id="pfTGVivJUqFewop_5Jl0-69" value="id" style="text;strokeColor=none;fillColor=none;align=left;verticalAlign=middle;spacingLeft=4;spacingRight=4;overflow=hidden;points=[[0,0.5],[1,0.5]];portConstraint=eastwest;rotatable=0;whiteSpace=wrap;html=1;" vertex="1" parent="pfTGVivJUqFewop_5Jl0-68">
          <mxGeometry y="30" width="140" height="30" as="geometry" />
        </mxCell>
        <mxCell id="pfTGVivJUqFewop_5Jl0-70" value="email" style="text;strokeColor=none;fillColor=none;align=left;verticalAlign=middle;spacingLeft=4;spacingRight=4;overflow=hidden;points=[[0,0.5],[1,0.5]];portConstraint=eastwest;rotatable=0;whiteSpace=wrap;html=1;" vertex="1" parent="pfTGVivJUqFewop_5Jl0-68">
          <mxGeometry y="60" width="140" height="30" as="geometry" />
        </mxCell>
        <mxCell id="pfTGVivJUqFewop_5Jl0-72" value="organization" style="text;strokeColor=none;fillColor=none;align=left;verticalAlign=middle;spacingLeft=4;spacingRight=4;overflow=hidden;points=[[0,0.5],[1,0.5]];portConstraint=eastwest;rotatable=0;whiteSpace=wrap;html=1;" vertex="1" parent="pfTGVivJUqFewop_5Jl0-68">
          <mxGeometry y="90" width="140" height="30" as="geometry" />
        </mxCell>
        <mxCell id="pfTGVivJUqFewop_5Jl0-71" value="title" style="text;strokeColor=none;fillColor=none;align=left;verticalAlign=middle;spacingLeft=4;spacingRight=4;overflow=hidden;points=[[0,0.5],[1,0.5]];portConstraint=eastwest;rotatable=0;whiteSpace=wrap;html=1;" vertex="1" parent="pfTGVivJUqFewop_5Jl0-68">
          <mxGeometry y="120" width="140" height="30" as="geometry" />
        </mxCell>
        <mxCell id="pfTGVivJUqFewop_5Jl0-73" value="description" style="text;strokeColor=none;fillColor=none;align=left;verticalAlign=middle;spacingLeft=4;spacingRight=4;overflow=hidden;points=[[0,0.5],[1,0.5]];portConstraint=eastwest;rotatable=0;whiteSpace=wrap;html=1;" vertex="1" parent="pfTGVivJUqFewop_5Jl0-68">
          <mxGeometry y="150" width="140" height="30" as="geometry" />
        </mxCell>
        <mxCell id="pfTGVivJUqFewop_5Jl0-74" value="tags (future)" style="text;strokeColor=none;fillColor=none;align=left;verticalAlign=middle;spacingLeft=4;spacingRight=4;overflow=hidden;points=[[0,0.5],[1,0.5]];portConstraint=eastwest;rotatable=0;whiteSpace=wrap;html=1;" vertex="1" parent="pfTGVivJUqFewop_5Jl0-68">
          <mxGeometry y="180" width="140" height="30" as="geometry" />
        </mxCell>
        <mxCell id="pfTGVivJUqFewop_5Jl0-75" value="status" style="text;strokeColor=none;fillColor=none;align=left;verticalAlign=middle;spacingLeft=4;spacingRight=4;overflow=hidden;points=[[0,0.5],[1,0.5]];portConstraint=eastwest;rotatable=0;whiteSpace=wrap;html=1;" vertex="1" parent="pfTGVivJUqFewop_5Jl0-68">
          <mxGeometry y="210" width="140" height="30" as="geometry" />
        </mxCell>
        <mxCell id="pfTGVivJUqFewop_5Jl0-76" value="visibility (future)" style="text;strokeColor=none;fillColor=none;align=left;verticalAlign=middle;spacingLeft=4;spacingRight=4;overflow=hidden;points=[[0,0.5],[1,0.5]];portConstraint=eastwest;rotatable=0;whiteSpace=wrap;html=1;" vertex="1" parent="pfTGVivJUqFewop_5Jl0-68">
          <mxGeometry y="240" width="140" height="30" as="geometry" />
        </mxCell>
        <mxCell id="pfTGVivJUqFewop_5Jl0-77" value="anonymous (future)" style="text;strokeColor=none;fillColor=none;align=left;verticalAlign=middle;spacingLeft=4;spacingRight=4;overflow=hidden;points=[[0,0.5],[1,0.5]];portConstraint=eastwest;rotatable=0;whiteSpace=wrap;html=1;" vertex="1" parent="pfTGVivJUqFewop_5Jl0-68">
          <mxGeometry y="270" width="140" height="30" as="geometry" />
        </mxCell>
        <mxCell id="pfTGVivJUqFewop_5Jl0-78" value="published" style="text;strokeColor=none;fillColor=none;align=left;verticalAlign=middle;spacingLeft=4;spacingRight=4;overflow=hidden;points=[[0,0.5],[1,0.5]];portConstraint=eastwest;rotatable=0;whiteSpace=wrap;html=1;" vertex="1" parent="pfTGVivJUqFewop_5Jl0-68">
          <mxGeometry y="300" width="140" height="30" as="geometry" />
        </mxCell>
        <mxCell id="pfTGVivJUqFewop_5Jl0-79" value="expirationDate" style="text;strokeColor=none;fillColor=none;align=left;verticalAlign=middle;spacingLeft=4;spacingRight=4;overflow=hidden;points=[[0,0.5],[1,0.5]];portConstraint=eastwest;rotatable=0;whiteSpace=wrap;html=1;" vertex="1" parent="pfTGVivJUqFewop_5Jl0-68">
          <mxGeometry y="330" width="140" height="30" as="geometry" />
        </mxCell>
        <mxCell id="pfTGVivJUqFewop_5Jl0-80" value="components" style="text;strokeColor=none;fillColor=none;align=left;verticalAlign=middle;spacingLeft=4;spacingRight=4;overflow=hidden;points=[[0,0.5],[1,0.5]];portConstraint=eastwest;rotatable=0;whiteSpace=wrap;html=1;" vertex="1" parent="pfTGVivJUqFewop_5Jl0-68">
          <mxGeometry y="360" width="140" height="30" as="geometry" />
        </mxCell>
        <mxCell id="pfTGVivJUqFewop_5Jl0-123" value="responses" style="text;strokeColor=none;fillColor=none;align=left;verticalAlign=middle;spacingLeft=4;spacingRight=4;overflow=hidden;points=[[0,0.5],[1,0.5]];portConstraint=eastwest;rotatable=0;whiteSpace=wrap;html=1;" vertex="1" parent="pfTGVivJUqFewop_5Jl0-68">
          <mxGeometry y="390" width="140" height="30" as="geometry" />
        </mxCell>
        <mxCell id="pfTGVivJUqFewop_5Jl0-91" value="Form DB" style="whiteSpace=wrap;html=1;aspect=fixed;rounded=0;fillColor=#f5f5f5;fontColor=#333333;strokeColor=#666666;" vertex="1" parent="1">
          <mxGeometry x="720" y="440" width="80" height="80" as="geometry" />
        </mxCell>
        <mxCell id="pfTGVivJUqFewop_5Jl0-94" value="/form-builder" style="whiteSpace=wrap;html=1;aspect=fixed;fillColor=#dae8fc;strokeColor=#6c8ebf;rounded=0;" vertex="1" parent="1">
          <mxGeometry x="280" y="520" width="80" height="80" as="geometry" />
        </mxCell>
        <mxCell id="pfTGVivJUqFewop_5Jl0-98" value="POST /api/auth/signup" style="rounded=0;whiteSpace=wrap;html=1;fillColor=#ffe6cc;strokeColor=#d79b00;" vertex="1" parent="1">
          <mxGeometry x="-120" y="200" width="160" height="80" as="geometry" />
        </mxCell>
        <mxCell id="pfTGVivJUqFewop_5Jl0-99" value="GET /api/forms&lt;br&gt;DELETE /api/forms/:id&lt;br style=&quot;border-color: var(--border-color);&quot;&gt;GET /api/forms/:id/responses/" style="rounded=0;whiteSpace=wrap;html=1;fillColor=#ffe6cc;strokeColor=#d79b00;" vertex="1" parent="1">
          <mxGeometry x="440" y="360" width="200" height="80" as="geometry" />
        </mxCell>
        <mxCell id="pfTGVivJUqFewop_5Jl0-101" value="POST /api/auth/login" style="rounded=0;whiteSpace=wrap;html=1;fillColor=#ffe6cc;strokeColor=#d79b00;" vertex="1" parent="1">
          <mxGeometry x="440" y="200" width="200" height="80" as="geometry" />
        </mxCell>
        <mxCell id="pfTGVivJUqFewop_5Jl0-104" value="POST /api/forms" style="rounded=0;whiteSpace=wrap;html=1;fillColor=#ffe6cc;strokeColor=#d79b00;" vertex="1" parent="1">
          <mxGeometry x="440" y="520" width="200" height="80" as="geometry" />
        </mxCell>
        <mxCell id="pfTGVivJUqFewop_5Jl0-105" value="" style="endArrow=classic;html=1;exitX=0.5;exitY=1;exitDx=0;exitDy=0;" edge="1" parent="1" source="pfTGVivJUqFewop_5Jl0-1">
          <mxGeometry width="50" height="50" relative="1" as="geometry">
            <mxPoint x="130" y="270" as="sourcePoint" />
            <mxPoint x="280" y="400" as="targetPoint" />
            <Array as="points">
              <mxPoint x="160" y="400" />
            </Array>
          </mxGeometry>
        </mxCell>
        <mxCell id="pfTGVivJUqFewop_5Jl0-106" value="" style="endArrow=classic;html=1;entryX=0.5;entryY=0;entryDx=0;entryDy=0;" edge="1" parent="1" source="pfTGVivJUqFewop_5Jl0-26" target="pfTGVivJUqFewop_5Jl0-9">
          <mxGeometry width="50" height="50" relative="1" as="geometry">
            <mxPoint x="320" y="260" as="sourcePoint" />
            <mxPoint x="370" y="210" as="targetPoint" />
          </mxGeometry>
        </mxCell>
        <mxCell id="pfTGVivJUqFewop_5Jl0-107" value="" style="endArrow=classic;startArrow=classic;html=1;entryX=0.5;entryY=1;entryDx=0;entryDy=0;exitX=0.5;exitY=0;exitDx=0;exitDy=0;" edge="1" parent="1" source="pfTGVivJUqFewop_5Jl0-94" target="pfTGVivJUqFewop_5Jl0-9">
          <mxGeometry width="50" height="50" relative="1" as="geometry">
            <mxPoint x="290" y="500" as="sourcePoint" />
            <mxPoint x="340" y="450" as="targetPoint" />
          </mxGeometry>
        </mxCell>
        <mxCell id="pfTGVivJUqFewop_5Jl0-108" value="" style="endArrow=none;dashed=1;html=1;exitX=1;exitY=0.5;exitDx=0;exitDy=0;entryX=0;entryY=0.5;entryDx=0;entryDy=0;" edge="1" parent="1" source="pfTGVivJUqFewop_5Jl0-26" target="pfTGVivJUqFewop_5Jl0-101">
          <mxGeometry width="50" height="50" relative="1" as="geometry">
            <mxPoint x="380" y="290" as="sourcePoint" />
            <mxPoint x="430" y="240" as="targetPoint" />
          </mxGeometry>
        </mxCell>
        <mxCell id="pfTGVivJUqFewop_5Jl0-109" value="" style="endArrow=none;dashed=1;html=1;exitX=1;exitY=0.5;exitDx=0;exitDy=0;entryX=0;entryY=0.5;entryDx=0;entryDy=0;" edge="1" parent="1">
          <mxGeometry width="50" height="50" relative="1" as="geometry">
            <mxPoint x="360" y="399.65999999999997" as="sourcePoint" />
            <mxPoint x="440" y="399.65999999999997" as="targetPoint" />
          </mxGeometry>
        </mxCell>
        <mxCell id="pfTGVivJUqFewop_5Jl0-110" value="" style="endArrow=none;dashed=1;html=1;exitX=1;exitY=0.5;exitDx=0;exitDy=0;entryX=0;entryY=0.5;entryDx=0;entryDy=0;" edge="1" parent="1">
          <mxGeometry width="50" height="50" relative="1" as="geometry">
            <mxPoint x="360" y="559.66" as="sourcePoint" />
            <mxPoint x="440" y="559.66" as="targetPoint" />
          </mxGeometry>
        </mxCell>
        <mxCell id="pfTGVivJUqFewop_5Jl0-111" value="" style="endArrow=none;dashed=1;html=1;exitX=1;exitY=0.5;exitDx=0;exitDy=0;entryX=0;entryY=0.5;entryDx=0;entryDy=0;" edge="1" parent="1">
          <mxGeometry width="50" height="50" relative="1" as="geometry">
            <mxPoint x="640" y="239.66" as="sourcePoint" />
            <mxPoint x="720" y="239.66" as="targetPoint" />
          </mxGeometry>
        </mxCell>
        <mxCell id="pfTGVivJUqFewop_5Jl0-112" value="" style="endArrow=none;dashed=1;html=1;exitX=1;exitY=0.5;exitDx=0;exitDy=0;entryX=0.5;entryY=0;entryDx=0;entryDy=0;" edge="1" parent="1" target="pfTGVivJUqFewop_5Jl0-91">
          <mxGeometry width="50" height="50" relative="1" as="geometry">
            <mxPoint x="640" y="399.65999999999997" as="sourcePoint" />
            <mxPoint x="720" y="399.65999999999997" as="targetPoint" />
            <Array as="points">
              <mxPoint x="760" y="400" />
            </Array>
          </mxGeometry>
        </mxCell>
        <mxCell id="pfTGVivJUqFewop_5Jl0-113" value="" style="endArrow=none;dashed=1;html=1;exitX=1;exitY=0.5;exitDx=0;exitDy=0;entryX=0.5;entryY=1;entryDx=0;entryDy=0;" edge="1" parent="1" target="pfTGVivJUqFewop_5Jl0-91">
          <mxGeometry width="50" height="50" relative="1" as="geometry">
            <mxPoint x="640" y="559.6600000000001" as="sourcePoint" />
            <mxPoint x="720" y="559.6600000000001" as="targetPoint" />
            <Array as="points">
              <mxPoint x="760" y="560" />
            </Array>
          </mxGeometry>
        </mxCell>
        <mxCell id="pfTGVivJUqFewop_5Jl0-114" value="" style="endArrow=none;dashed=1;html=1;exitX=1;exitY=0.5;exitDx=0;exitDy=0;entryX=0;entryY=0.5;entryDx=0;entryDy=0;" edge="1" parent="1" source="pfTGVivJUqFewop_5Jl0-98" target="pfTGVivJUqFewop_5Jl0-1">
          <mxGeometry width="50" height="50" relative="1" as="geometry">
            <mxPoint x="70" y="280" as="sourcePoint" />
            <mxPoint x="120" y="230" as="targetPoint" />
          </mxGeometry>
        </mxCell>
        <mxCell id="pfTGVivJUqFewop_5Jl0-115" value="GET /api/forms/:id&lt;br&gt;POST /api/forms/:id/responses" style="rounded=0;whiteSpace=wrap;html=1;fillColor=#ffe6cc;strokeColor=#d79b00;" vertex="1" parent="1">
          <mxGeometry x="880" y="440" width="200" height="80" as="geometry" />
        </mxCell>
        <mxCell id="pfTGVivJUqFewop_5Jl0-116" value="" style="endArrow=none;dashed=1;html=1;exitX=1;exitY=0.5;exitDx=0;exitDy=0;entryX=0;entryY=0.5;entryDx=0;entryDy=0;" edge="1" parent="1" source="pfTGVivJUqFewop_5Jl0-91" target="pfTGVivJUqFewop_5Jl0-115">
          <mxGeometry width="50" height="50" relative="1" as="geometry">
            <mxPoint x="820" y="530" as="sourcePoint" />
            <mxPoint x="870" y="480" as="targetPoint" />
          </mxGeometry>
        </mxCell>
        <mxCell id="pfTGVivJUqFewop_5Jl0-117" value="" style="endArrow=none;dashed=1;html=1;exitX=1;exitY=0.5;exitDx=0;exitDy=0;" edge="1" parent="1" source="pfTGVivJUqFewop_5Jl0-115">
          <mxGeometry width="50" height="50" relative="1" as="geometry">
            <mxPoint x="1110" y="530" as="sourcePoint" />
            <mxPoint x="1160" y="480" as="targetPoint" />
          </mxGeometry>
        </mxCell>
        <mxCell id="pfTGVivJUqFewop_5Jl0-122" value="" style="endArrow=none;dashed=1;html=1;exitX=0.5;exitY=1;exitDx=0;exitDy=0;entryX=0.5;entryY=1;entryDx=0;entryDy=0;jumpStyle=gap;jumpSize=14;" edge="1" parent="1" source="pfTGVivJUqFewop_5Jl0-98" target="pfTGVivJUqFewop_5Jl0-40">
          <mxGeometry width="50" height="50" relative="1" as="geometry">
            <mxPoint x="-40" y="320" as="sourcePoint" />
            <mxPoint x="760" y="320" as="targetPoint" />
            <Array as="points">
              <mxPoint x="-40" y="320" />
              <mxPoint x="350" y="320" />
              <mxPoint x="760" y="320" />
            </Array>
          </mxGeometry>
        </mxCell>
        <mxCell id="pfTGVivJUqFewop_5Jl0-126" value="" style="rounded=0;whiteSpace=wrap;html=1;fillColor=none;" vertex="1" parent="1">
          <mxGeometry x="-160" y="-240" width="1440" height="880" as="geometry" />
        </mxCell>
      </root>
    </mxGraphModel>
  </diagram>
</mxfile>
